<svg width="682" height="178" viewBox="0 0 682 178" fill="none" xmlns="http://www.w3.org/2000/svg">
<path d="M621.169 68.353C620.115 69.0054 618.856 69.2312 617.391 69.0305C615.968 68.8038 614.878 68.0792 614.121 66.8568C612.973 65.0022 612.579 62.3888 612.94 59.0166C613.301 55.6444 614.43 53.3712 616.327 52.1969C617.592 51.414 618.893 51.162 620.232 51.441C621.545 51.6778 622.658 52.5338 623.571 54.0091C624.694 55.8216 625.069 58.3588 624.698 61.6206C624.327 64.8823 623.15 67.1265 621.169 68.353ZM642.966 93.9535L645.823 98.5691C644.997 106.369 643.648 112.714 641.777 117.604C639.881 122.451 637.689 125.645 635.202 127.185C631.746 129.325 628.052 129.104 624.122 126.523C620.192 123.942 616.896 120.501 614.234 116.202C613.216 114.558 612.419 112.894 611.843 111.21C611.241 109.484 610.872 107.992 610.735 106.736C610.598 105.479 610.523 103.427 610.509 100.579C610.727 87.5576 613.323 79.5075 618.297 76.4282C620.868 74.8364 622.767 75.031 623.994 77.0121C624.829 78.3609 625.291 80.9904 625.379 84.9005C625.51 88.7845 625.3 91.7422 624.75 93.7735C623.275 99.5845 622.399 103.538 622.122 105.633C621.887 107.703 622.318 109.623 623.414 111.393C624.353 112.911 625.705 113.823 627.47 114.13C629.234 114.437 631.022 114.029 632.835 112.907C634.816 111.681 636.543 109.62 638.016 106.726C639.506 103.763 641.155 99.5056 642.966 93.9535Z" fill="black"/>
<path d="M30.4896 21.0001C29.3701 21.0049 28.3328 21.1711 27.4759 21.5411C16.5486 26.2611 4.53744 39.5795 0.743456 56.3087C-4.06151 77.4983 15.9335 86.459 17.5735 83.5255C19.5038 80.0721 13.9897 78.9049 12.8548 67.9103C11.3882 53.7097 17.792 37.8412 25.8509 30.879C27.3489 29.5856 27.2767 31.3868 27.2767 34.7169C27.2767 40.6728 26.9563 94.1295 26.9563 105.287C26.9563 120.384 26.3533 125.152 25.2669 129.861C24.1661 134.635 22.3958 137.86 23.7356 139.104C25.2337 140.493 31.629 137.187 35.3313 131.859C39.7705 125.47 41.3253 117.797 41.6048 109.463C41.9418 99.4172 41.9264 83.4772 41.9407 74.3849C41.9536 66.0458 42.0759 41.6269 41.7981 26.9474C41.7434 24.0219 35.3404 20.9796 30.4896 21.0001ZM176.4 21.0392C174.412 21.0739 173.436 22.0799 173.199 24.422C172.72 29.1613 172.472 43.047 172.472 43.047C169.837 43.047 160.841 42.5157 158.206 42.5157C155.758 42.5157 153.117 53.3706 156.501 53.504C160.395 53.6597 167.18 53.7941 171.679 53.9337C171.679 53.9337 171.478 78.2866 171.478 85.8048C171.478 86.6044 171.481 87.3735 171.486 88.1212C169.01 101.427 160.288 108.615 160.288 108.615C162.161 99.813 158.336 93.2011 151.447 87.6056C148.907 85.543 143.896 81.6414 138.288 77.3634C138.288 77.3634 141.535 74.0627 144.415 67.422C146.456 62.7187 146.544 57.3355 141.534 56.1485C133.259 54.187 126.435 60.4539 124.4 67.1446C122.823 72.3288 123.664 76.1738 126.753 80.17C126.979 80.4618 127.223 80.7604 127.476 81.0606C125.608 84.7734 123.04 89.7718 120.867 93.6486C114.832 104.412 110.275 112.924 106.829 112.924C104.076 112.924 104.115 104.282 104.115 96.1896C104.115 89.2134 104.614 78.7247 105.013 67.8653C105.145 64.2739 103.403 62.2282 100.484 60.3751C98.7098 59.2493 94.9235 57.0352 92.7317 57.0352C89.45 57.0352 79.9812 57.4956 71.0345 84.1798C69.9067 87.5432 67.6907 93.672 67.6907 93.672L67.8821 61.5821C67.8821 60.8298 67.4925 60.1012 66.6028 59.6036C65.0949 58.7605 61.0677 57.0352 57.4876 57.0352C55.782 57.0352 54.931 57.8537 54.931 59.4845L54.6185 109.688C54.6185 113.502 54.7147 117.953 55.0813 119.899C55.4453 121.848 56.0354 123.434 56.7669 124.377C57.4966 125.318 58.3408 126.036 59.7337 126.332C61.0295 126.607 68.1261 127.546 68.4954 124.75C68.9375 121.399 68.9544 117.775 72.681 104.256C78.4825 83.209 86.0461 72.94 89.6028 69.2931C90.2238 68.6556 90.9339 68.617 90.8997 69.6603C90.7486 74.2736 90.2151 85.8041 89.8548 95.5998C88.8915 121.814 93.5169 126.674 100.126 126.674C105.183 126.674 112.31 121.492 119.95 108.379C124.713 100.207 129.339 92.1953 132.663 86.42C134.979 88.6308 137.577 91.0093 140.175 93.5509C146.21 99.4568 148.191 105.069 146.876 110.393C145.871 114.463 142.085 118.657 135.345 114.58C133.381 113.391 132.54 112.473 130.566 111.131C129.504 110.411 127.887 110.195 126.915 110.949C124.391 112.911 122.946 115.407 122.122 118.496C121.321 121.502 124.24 123.091 127.267 124.481C129.873 125.677 135.474 126.762 139.046 126.885C152.963 127.365 164.114 119.955 171.874 100.844C173.264 117.349 179.177 126.69 189.45 126.69C196.319 126.69 203.205 117.537 206.216 108.531C207.081 112.202 208.36 115.392 210.013 118.092C217.929 131.024 233.286 128.241 240.999 117.26C243.383 113.867 243.747 112.647 243.747 112.647C244.872 123.016 252.972 126.641 257.609 126.641C262.802 126.641 268.163 124.108 271.921 115.385C272.352 116.316 272.834 117.221 273.367 118.094C281.282 131.026 296.639 128.243 304.353 117.262C304.716 116.746 305.033 116.279 305.308 115.859L305.534 122.67L298.433 129.387C286.529 140.636 277.485 149.169 276.82 159.106C275.974 171.775 285.934 176.485 293.48 177.102C301.479 177.757 308.343 173.196 312.556 166.813C316.263 161.196 318.688 149.105 318.511 137.162C318.44 132.38 318.322 126.301 318.23 119.783C322.408 114.78 327.118 108.454 331.452 101.053C336.177 92.9852 341.24 82.1536 343.831 73.7228C343.831 73.7228 348.231 73.7606 352.925 73.4435C354.427 73.3426 354.856 73.6589 354.579 74.795C354.244 76.1654 348.648 98.4192 353.755 113.244C357.251 123.393 365.13 126.658 369.802 126.658C375.271 126.658 380.502 122.4 383.306 116.076C383.644 116.781 383.999 117.464 384.384 118.094C392.3 131.026 407.603 128.227 415.37 117.262C417.123 114.788 418.118 112.649 418.118 112.649C419.785 123.38 427.879 126.695 432.515 126.695C437.344 126.695 441.926 124.654 445.644 115.582C445.799 119.577 446.045 122.842 446.431 123.871C446.666 124.501 448.038 125.292 449.036 125.674C453.454 127.362 457.959 126.564 459.626 126.217C460.781 125.976 461.683 125.021 461.806 122.555C462.129 116.078 461.929 105.196 463.833 97.1076C467.03 83.5352 470.013 78.2697 471.427 75.6642C472.219 74.2039 473.112 73.9625 473.144 75.5079C473.209 78.6351 473.36 87.8182 474.599 100.156C475.508 109.23 476.724 114.596 477.658 116.293C480.322 121.146 483.613 121.375 486.292 121.375C487.996 121.375 491.56 120.89 491.241 117.801C491.086 116.295 491.36 106.99 494.511 93.6193C496.569 84.8873 500 76.9987 501.238 74.1134C501.694 73.0496 501.905 73.8876 501.898 74.0509C501.637 80.0643 501.053 99.7329 503.429 110.49C506.65 125.064 515.965 126.695 519.212 126.695C522.923 126.695 526.263 125.116 528.867 121.473C528.972 122.366 529.093 123.042 529.234 123.416C529.469 124.046 530.843 124.837 531.841 125.219C536.259 126.907 540.764 126.109 542.431 125.762C543.586 125.521 544.486 124.564 544.609 122.098C544.931 115.621 544.734 104.74 546.638 96.6524C549.834 83.0801 552.815 77.8146 554.23 75.2091C555.021 73.7489 555.916 73.5074 555.949 75.0529C556.014 78.1801 556.164 87.3631 557.404 99.7013C558.313 108.775 559.527 114.139 560.46 115.836C563.125 120.689 566.415 120.92 569.095 120.92C570.799 120.92 574.365 120.435 574.046 117.346C573.891 115.84 574.162 106.535 577.314 93.1642C579.372 84.4322 582.803 76.5436 584.04 73.6583C584.497 72.5946 584.71 73.4325 584.702 73.5958C584.442 79.6092 583.856 99.2778 586.232 110.035C589.452 124.609 598.768 126.238 602.015 126.238C608.946 126.238 614.615 120.803 616.525 106.498C616.989 103.054 616.308 100.398 614.271 100.395H614.267C612.684 100.398 611.963 102.082 611.365 104.916C609.288 114.778 607.108 117.002 604.294 117.002C601.151 117.002 598.326 112.119 597.601 102.346C597.03 94.6609 597.121 80.5112 597.851 66.4376C598 63.5458 597.227 60.6849 589.704 57.8673C586.468 56.6544 581.762 54.8704 579.419 60.7013C572.801 77.1747 570.21 90.2555 569.601 95.5665C569.571 95.8421 569.243 95.8958 569.185 95.254C568.797 90.9992 567.929 83.2671 567.822 67.0216C567.799 63.8518 567.148 61.1524 563.755 58.9435C561.554 57.5092 554.868 54.9763 552.46 57.9923C550.375 60.4588 547.96 67.0965 545.451 74.9649C543.411 81.3592 541.99 85.6856 541.99 85.6856C541.99 85.6856 542.015 68.4301 542.04 61.8849C542.048 59.4155 540.409 58.5917 539.913 58.4435C537.685 57.7763 533.291 56.6603 531.427 56.6603C529.126 56.6603 528.564 57.9861 528.564 59.9181C528.564 60.1709 528.2 82.6368 528.2 98.3458C528.2 99.0278 528.201 99.7732 528.202 100.565C527.643 103.736 526.906 108.681 526.57 112.461C525.06 116.334 523.426 117.459 521.49 117.459C518.346 117.459 515.521 112.574 514.796 102.801C514.226 95.1159 514.318 80.9663 515.048 66.8927C515.197 64.0009 514.422 61.14 506.9 58.3224C503.663 57.1095 498.959 55.3255 496.617 61.1564C489.998 77.6298 487.405 90.7105 486.796 96.0216C486.766 96.2971 486.439 96.3528 486.38 95.7111C485.992 91.4563 485.125 83.7221 485.017 67.4767C484.994 64.3069 484.346 61.6095 480.952 59.4005C478.751 57.9662 472.065 55.4314 469.658 58.4474C467.573 60.9138 465.156 67.5516 462.646 75.42C460.606 81.8142 459.185 86.1408 459.185 86.1408C459.185 86.1408 459.211 68.8852 459.236 62.34C459.243 59.8706 457.604 59.0468 457.109 58.8986C454.88 58.2314 450.488 57.1173 448.624 57.1173C446.323 57.1173 445.759 58.4432 445.759 60.3751C445.759 60.628 445.396 83.0938 445.396 98.8029C445.396 99.4848 445.396 100.228 445.398 101.02C444.125 108.239 439.999 118.041 435.511 118.041C431.018 118.041 428.9 113.945 428.9 95.2169C428.9 84.2926 429.217 79.5416 429.372 71.6407C429.464 67.0894 429.641 63.5931 429.63 62.8009C429.596 60.3687 425.518 59.1416 423.62 58.6876C421.714 58.2318 420.055 58.0551 418.761 58.131C416.93 58.2372 415.636 59.4758 415.636 61.1798C415.636 62.0934 415.642 63.8302 415.642 63.8302C413.283 60.0081 409.489 57.3472 406.966 56.5763C400.167 54.4952 393.071 56.3405 387.72 64.0607C383.467 70.1954 380.903 77.1442 379.894 87.127C379.156 94.4247 379.397 101.827 380.708 108.086C379.124 115.148 376.183 118.041 372.962 118.041C368.287 118.041 364.897 110.172 365.29 96.5626C365.55 87.611 367.288 81.3301 369.187 72.2423C369.997 68.3674 369.339 66.3405 367.689 64.3966C366.176 62.613 362.952 61.7041 358.316 62.8243C355.014 63.6221 350.294 64.481 345.976 65.1407C345.976 65.1407 346.237 64.068 346.45 62.1778C347.574 52.2654 337.127 53.0703 333.794 56.2364C331.805 58.1266 330.449 60.3551 329.935 64.3634C329.12 70.7234 334.152 73.7247 334.152 73.7247C332.501 81.5171 328.453 91.696 324.277 99.0548C322.039 102.997 320.327 105.918 318.118 109.024C318.11 107.869 318.103 106.715 318.099 105.561C318.048 89.1799 318.26 76.2875 318.353 71.6407C318.445 67.0895 318.621 63.6869 318.611 62.8946C318.586 61.1157 317.579 60.4435 315.484 59.5939C313.631 58.8415 311.44 58.3204 309.167 58.1388C306.3 57.909 304.571 59.4772 304.617 61.3322C304.626 61.6825 304.624 63.8321 304.624 63.8321C302.265 60.01 298.472 57.3511 295.949 56.5802C289.15 54.4991 282.054 56.3425 276.702 64.0626C272.45 70.1974 269.665 78.8064 268.876 87.0528C268.141 94.7387 268.279 101.27 269.281 106.772C268.2 112.281 265.09 118.043 261.576 118.043C257.082 118.043 254.527 113.947 254.527 95.2189C254.527 84.2947 254.844 79.5425 254.999 71.6407C255.091 67.0895 255.266 63.5951 255.255 62.8029C255.222 60.3706 251.143 59.1436 249.245 58.6896C247.259 58.2151 245.544 58.0426 244.228 58.1427C242.49 58.2761 241.271 59.8781 241.271 61.0743V63.8321C238.912 60.01 235.116 57.3511 232.593 56.5802C225.794 54.4991 218.74 56.3723 213.349 64.0626C209.833 69.0772 206.988 74.6368 205.523 86.9435C205.1 90.4996 204.913 93.8312 204.937 96.9435C203.535 105.783 197.344 115.971 192.279 115.971C189.315 115.971 186.491 110.044 186.491 97.4122C186.491 80.5858 187.503 56.6294 187.673 54.3204C187.673 54.3204 194.073 54.2082 195.312 54.1935C198.505 54.1557 201.395 54.2359 205.646 54.0118C207.778 53.8995 209.833 46.0079 207.632 45.0314C206.636 44.5893 199.584 44.2019 196.79 44.1407C194.44 44.0863 187.898 43.5861 187.898 43.5861C187.898 43.5861 188.485 27.6858 188.622 26.006C188.738 24.605 186.981 23.8836 185.974 23.4454C183.523 22.378 181.332 21.8668 178.734 21.3146C177.836 21.1237 177.062 21.0276 176.4 21.0392ZM231.165 66.9747C231.542 66.9582 231.929 66.9701 232.324 67.0099C238.808 67.664 241.96 76.2563 241.132 92.0079C240.735 99.5779 239.302 105.905 237.003 110.502C232.844 118.822 224.615 121.461 220.988 109.44C218.372 100.772 219.263 88.9505 220.351 82.5665C221.865 73.6828 225.514 67.2229 231.165 66.9747ZM405.492 66.9786C405.882 66.9597 406.284 66.9701 406.695 67.0099C413.182 67.6371 416.218 76.2565 415.503 92.1935C415.151 100.041 413.467 106.175 411.376 110.502C407.328 118.879 398.926 121.481 395.361 109.44C393.417 102.876 393.325 91.9121 394.722 82.7521C396.056 74.0047 399.631 67.2626 405.492 66.9786ZM295.677 67.0099C302.192 67.009 305.404 74.3801 304.486 92.1173C304.115 99.2658 302.318 106.447 300.357 110.504C296.309 118.881 287.85 121.499 284.343 109.44C281.946 101.2 282.518 90.535 283.704 83.8165C285.244 75.0975 288.976 67.0099 295.677 67.0099ZM306.158 132.815C306.157 132.815 306.178 135.212 306.138 140.887C306.05 153.927 304.061 165.361 299.792 168.682C293.738 173.39 285.602 169.858 287.286 160.342C288.777 151.921 295.829 143.322 306.158 132.815Z" fill="black"/>
</svg>
