<svg width="81" height="21" viewBox="0 0 81 21" fill="none" xmlns="http://www.w3.org/2000/svg">
<path d="M2.34 16.9C1.23333 16.9 0.666667 16.46 0.64 15.58C0.64 15.2067 0.76 14.8733 1 14.58C1.24 14.2867 1.53333 14.14 1.88 14.14C2.14667 14.14 2.36 14.24 2.52 14.44C2.66667 14.6 2.74 14.8 2.74 15.04C2.74 15.7067 2.43333 16.04 1.82 16.04C1.5 16.04 1.27333 15.9067 1.14 15.64C1.20667 16.12 1.6 16.36 2.32 16.36C2.46667 16.36 2.60667 16.34 2.74 16.3C4.3 15.9 5.70667 14.6733 6.96 12.62C8.2 10.5933 9.45333 8.24 10.72 5.56C11.68 3.53333 12.54 2.16667 13.3 1.46C12.4733 1.68667 11.72 1.92 11.04 2.16C10.3733 2.4 9.78667 2.64 9.28 2.88C7.90667 3.52 6.73333 4.32667 5.76 5.3C5.42667 5.63333 5.12 6.06 4.84 6.58C4.68 6.87333 4.55333 7.15333 4.46 7.42C4.38 7.68667 4.34 7.93333 4.34 8.16C4.34 8.88 4.76667 9.28667 5.62 9.38C5.66 9.38 5.7 9.38667 5.74 9.4C5.78 9.4 5.82 9.4 5.86 9.4C6.1 9.4 6.34667 9.36 6.6 9.28C6.85333 9.2 7.12 9.09333 7.4 8.96C7.49333 8.92 7.54667 8.95333 7.56 9.06V9.1C7.56 9.18 7.51333 9.24667 7.42 9.3C7.14 9.42 6.84667 9.52 6.54 9.6C6.24667 9.66667 5.94667 9.72 5.64 9.76C5.54667 9.77333 5.46 9.78667 5.38 9.8C5.3 9.8 5.21333 9.8 5.12 9.8C4.46667 9.8 3.96667 9.64667 3.62 9.34C3.27333 9.02 3.1 8.6 3.1 8.08C3.1 7.28 3.48 6.44 4.24 5.56C4.66667 5.06667 5.16 4.62 5.72 4.22C6.28 3.80667 6.92667 3.43333 7.66 3.1C8.56667 2.68667 9.54667 2.3 10.6 1.94C11.6667 1.58 12.8067 1.23333 14.02 0.899999C14.26 0.753333 14.4933 0.639999 14.72 0.559999C14.9467 0.466666 15.1667 0.393333 15.38 0.339999C15.58 0.299999 15.7667 0.279999 15.94 0.279999C16.4067 0.279999 16.64 0.419999 16.64 0.699999C16.64 0.899999 16.5133 1.08667 16.26 1.26C16.0067 1.43333 15.6733 1.52 15.26 1.52C14.9267 1.52 14.56 1.44667 14.16 1.3H13.94C13.2067 1.83333 12.5067 3.21333 11.84 5.44C10.8933 8.57333 9.88667 10.98 8.82 12.66C7.12667 15.2867 5.08667 16.6933 2.7 16.88C2.64667 16.88 2.58667 16.88 2.52 16.88C2.46667 16.8933 2.40667 16.9 2.34 16.9ZM11.1023 15.14C11.369 14.4867 11.7023 13.68 12.1023 12.72C12.5023 11.76 12.989 10.6533 13.5623 9.4C13.6823 9.13333 13.7957 8.91333 13.9023 8.74C14.009 8.56667 14.109 8.43333 14.2023 8.34C14.389 8.15333 14.629 8.06 14.9223 8.06C14.949 8.06 14.9957 8.06 15.0623 8.06C15.129 8.06 15.2223 8.07333 15.3423 8.1C15.529 8.11333 15.669 8.11333 15.7623 8.1C15.269 8.39333 14.529 9.68667 13.5423 11.98C13.7023 11.7533 13.9157 11.5067 14.1823 11.24C14.4623 10.96 14.789 10.6533 15.1623 10.32C15.4023 10.0933 15.669 9.88 15.9623 9.68C16.2557 9.46667 16.5757 9.26667 16.9223 9.08C17.709 8.64 18.289 8.42 18.6623 8.42C18.7557 8.42 18.8223 8.42667 18.8623 8.44C18.649 8.81333 18.449 9.17333 18.2623 9.52C18.089 9.86667 17.9223 10.1933 17.7623 10.5C16.989 11.9933 16.5557 13.0267 16.4623 13.6C16.449 13.6933 16.4357 13.78 16.4223 13.86C16.4223 13.94 16.4223 14.0133 16.4223 14.08C16.4223 14.4267 16.549 14.6 16.8023 14.6C17.2157 14.6 17.709 14.18 18.2823 13.34L18.5623 13.54C17.8823 14.5667 17.1957 15.08 16.5023 15.08C15.6623 15.08 15.2423 14.6467 15.2423 13.78C15.2423 13.0733 15.6757 12.0267 16.5423 10.64C16.6757 10.4267 16.7423 10.2467 16.7423 10.1C16.7423 9.94 16.669 9.86 16.5223 9.86C16.3757 9.86 16.1823 9.94 15.9423 10.1C15.7157 10.2467 15.4423 10.4667 15.1223 10.76C14.6157 11.2267 14.1423 11.7867 13.7023 12.44C13.2623 13.08 12.8623 13.8133 12.5023 14.64C12.4223 14.84 12.2157 14.96 11.8823 15C11.4557 15.04 11.1957 15.0867 11.1023 15.14ZM20.7409 15.08C20.0743 15.08 19.5609 14.88 19.2009 14.48C18.9076 14.1467 18.7609 13.7467 18.7609 13.28C18.7609 12.6 18.9743 12.26 19.4009 12.26C19.5609 12.26 19.7076 12.32 19.8409 12.44C19.9743 12.5733 20.0409 12.7267 20.0409 12.9C20.0409 13.0067 20.0143 13.0933 19.9609 13.16C19.7876 13.3733 19.7009 13.6067 19.7009 13.86C19.7009 14.1133 19.7809 14.32 19.9409 14.48C20.1143 14.6533 20.3343 14.74 20.6009 14.74C20.8809 14.74 21.1343 14.6467 21.3609 14.46C21.6676 14.18 21.8209 13.7933 21.8209 13.3C21.8209 12.8733 21.7076 12.3933 21.4809 11.86C21.3876 11.7267 21.2743 11.5533 21.1409 11.34C21.0209 11.1267 20.8809 10.8733 20.7209 10.58C20.6276 10.42 20.5609 10.26 20.5209 10.1C20.4943 9.92667 20.4809 9.76 20.4809 9.6C20.4809 9.04 20.6876 8.59333 21.1009 8.26C21.5276 7.91333 22.0743 7.74 22.7409 7.74C22.9276 7.74 23.1076 7.76 23.2809 7.8C23.4676 7.84 23.6343 7.91333 23.7809 8.02C24.0876 8.24667 24.2409 8.52667 24.2409 8.86C24.2409 9.00667 24.2143 9.14 24.1609 9.26C24.0409 9.60667 23.7809 9.78 23.3809 9.78C22.9409 9.78 22.7209 9.55333 22.7209 9.1C22.7209 8.96667 22.7409 8.85333 22.7809 8.76C22.8209 8.62667 22.9676 8.49333 23.2209 8.36C23.1276 8.18667 22.9543 8.1 22.7009 8.1C22.4743 8.1 22.3076 8.15333 22.2009 8.26C21.8809 8.54 21.7209 8.89333 21.7209 9.32C21.7209 9.61333 21.8009 9.93333 21.9609 10.28C21.9876 10.3333 22.2476 10.7533 22.7409 11.54C23.0743 12.0733 23.2409 12.52 23.2409 12.88C23.2409 13.4533 22.9743 13.96 22.4409 14.4C21.9076 14.8533 21.3409 15.08 20.7409 15.08ZM25.8414 15C24.9747 15 24.5414 14.5267 24.5414 13.58C24.5414 13.3933 24.5547 13.2 24.5814 13C24.6214 12.8 24.6814 12.6 24.7614 12.4C25.4681 10.5333 26.0681 9.01333 26.5614 7.84H25.2614L25.5014 7.4H26.7414L27.2214 6C27.3947 5.50667 27.5414 5.21333 27.6614 5.12C27.7547 5.05333 27.9681 5.02 28.3014 5.02L29.1614 5.04C28.8947 5.26667 28.6947 5.54 28.5614 5.86L27.9014 7.4H29.4214L29.1814 7.84H27.7214C27.6281 8.05333 27.5347 8.26667 27.4414 8.48C27.3614 8.69333 27.2681 8.91333 27.1614 9.14C26.8814 9.75333 26.6414 10.3333 26.4414 10.88C26.2014 11.5067 26.0081 12.0467 25.8614 12.5C25.7281 12.9533 25.6481 13.3133 25.6214 13.58C25.5681 14.2333 25.7414 14.56 26.1414 14.56C26.5147 14.56 26.9681 14.16 27.5014 13.36L27.7414 13.64C27.1014 14.5467 26.4681 15 25.8414 15ZM33.2764 15.04C32.9831 15.04 32.7431 14.9533 32.5564 14.78C32.2897 14.5533 32.1564 14.1733 32.1564 13.64C32.1564 13.2933 32.2164 12.9 32.3364 12.46C31.8831 13.22 31.4097 13.84 30.9164 14.32C30.4097 14.7867 29.9564 15.02 29.5564 15.02C29.2097 15.02 28.9364 14.8667 28.7364 14.56C28.5231 14.2667 28.4164 13.86 28.4164 13.34C28.4164 12.0733 28.9831 10.7667 30.1164 9.42C30.3031 9.19333 30.5164 8.98667 30.7564 8.8C30.9964 8.61333 31.2564 8.44667 31.5364 8.3C32.1097 8.00667 32.6631 7.86 33.1964 7.86C33.8497 7.86 34.3697 8.07333 34.7564 8.5C34.8497 8.59333 34.8964 8.7 34.8964 8.82C34.8964 9.04667 34.7764 9.13333 34.5364 9.08C34.4031 8.6 34.0897 8.36 33.5964 8.36C33.0364 8.36 32.3764 8.75333 31.6164 9.54C31.3497 9.83333 31.0964 10.14 30.8564 10.46C30.6164 10.7667 30.3897 11.0933 30.1764 11.44C29.6031 12.4 29.3164 13.18 29.3164 13.78C29.3164 14.2333 29.4897 14.46 29.8364 14.46C30.2231 14.46 30.6697 14.1667 31.1764 13.58C31.4564 13.26 31.7431 12.8667 32.0364 12.4C32.3297 11.9333 32.6364 11.3933 32.9564 10.78C33.0897 10.5267 33.2097 10.32 33.3164 10.16C33.4231 10 33.5097 9.88 33.5764 9.8C33.7897 9.58667 34.0431 9.48667 34.3364 9.5L34.7364 9.56C34.9097 9.6 35.0564 9.60667 35.1764 9.58C35.0564 9.7 34.9097 9.89333 34.7364 10.16C34.5764 10.4133 34.3897 10.7467 34.1764 11.16C33.9497 11.6 33.7631 12 33.6164 12.36C33.4697 12.72 33.3697 13.04 33.3164 13.32C33.2897 13.4533 33.2697 13.58 33.2564 13.7C33.2431 13.8067 33.2364 13.9067 33.2364 14C33.2364 14.3467 33.3297 14.52 33.5164 14.52C33.7831 14.52 34.1497 14.2267 34.6164 13.64L34.6964 13.54L34.9764 13.72L34.8964 13.84C34.3497 14.64 33.8097 15.04 33.2764 15.04ZM35.1644 20.22C34.4577 20.22 33.931 19.9867 33.5844 19.52C33.4377 19.2933 33.3644 18.9933 33.3644 18.62C33.3644 18.3267 33.4044 18.1133 33.4844 17.98L33.8444 17.96C33.7777 18.2 33.7444 18.4067 33.7444 18.58C33.7444 19.3 34.1644 19.66 35.0044 19.66C35.7777 19.66 36.5644 19.04 37.3644 17.8C37.591 17.4533 37.8177 17.0333 38.0444 16.54C38.2844 16.06 38.511 15.5133 38.7244 14.9C38.871 14.5 39.011 14.1 39.1444 13.7C39.291 13.2867 39.4377 12.8733 39.5844 12.46C39.1044 13.2333 38.6244 13.8533 38.1444 14.32C37.651 14.7867 37.1977 15.02 36.7844 15.02C36.451 15.02 36.1844 14.8667 35.9844 14.56C35.771 14.2667 35.6644 13.86 35.6644 13.34C35.6644 12.0867 36.2244 10.78 37.3444 9.42C37.531 9.19333 37.7444 8.98667 37.9844 8.8C38.2244 8.61333 38.4844 8.44667 38.7644 8.3C39.3377 8.00667 39.891 7.86 40.4244 7.86C41.0777 7.86 41.5977 8.07333 41.9844 8.5C42.0777 8.59333 42.1244 8.7 42.1244 8.82C42.1244 9.04667 42.0044 9.13333 41.7644 9.08C41.631 8.6 41.3244 8.36 40.8444 8.36C40.2844 8.36 39.6244 8.75333 38.8644 9.54C38.3044 10.1267 37.8177 10.76 37.4044 11.44C36.8444 12.3733 36.5644 13.1533 36.5644 13.78C36.5644 14.2333 36.731 14.46 37.0644 14.46C37.4644 14.46 37.9177 14.1667 38.4244 13.58C38.971 12.9267 39.5644 11.9933 40.2044 10.78C40.4577 10.3 40.6577 9.97333 40.8044 9.8C41.0177 9.58667 41.271 9.48667 41.5644 9.5L41.9844 9.56C42.1444 9.6 42.2844 9.60667 42.4044 9.58C42.311 9.67333 42.2177 9.77333 42.1244 9.88C42.031 9.98667 41.951 10.0933 41.8844 10.2C41.7644 10.3867 41.631 10.6267 41.4844 10.92C41.3377 11.2 41.191 11.5333 41.0444 11.92C40.8844 12.3333 40.731 12.7333 40.5844 13.12C40.451 13.5067 40.311 13.8733 40.1644 14.22C39.831 15.0733 39.5244 15.8133 39.2444 16.44C38.9644 17.0667 38.7177 17.5867 38.5044 18C38.3577 18.2933 38.171 18.56 37.9444 18.8C37.731 19.04 37.4844 19.2667 37.2044 19.48C36.551 19.9733 35.871 20.22 35.1644 20.22ZM41.9422 15.14C42.1955 14.5 42.5289 13.7 42.9422 12.74C43.3689 11.78 43.8489 10.6867 44.3822 9.46C44.4889 9.19333 44.5889 8.98 44.6822 8.82C44.7889 8.66 44.8822 8.53333 44.9622 8.44C45.1355 8.24 45.3689 8.16 45.6622 8.2L46.0822 8.26C46.1755 8.27333 46.2555 8.28667 46.3222 8.3C46.4022 8.3 46.4689 8.29333 46.5222 8.28C46.2555 8.41333 45.9422 8.79333 45.5822 9.42C45.2355 10.0333 44.8489 10.8733 44.4222 11.94C44.5689 11.7533 44.7555 11.5067 44.9822 11.2C45.2089 10.88 45.4955 10.5133 45.8422 10.1C46.2289 9.64667 46.6289 9.22667 47.0422 8.84C47.4555 8.45333 47.8555 8.26 48.2422 8.26C48.5489 8.26 48.7689 8.36 48.9022 8.56C49.0355 8.76 49.1022 8.98667 49.1022 9.24C49.1022 9.54667 48.9822 9.82 48.7422 10.06C48.5022 10.3 48.2689 10.42 48.0422 10.42C47.9489 10.42 47.8489 10.4 47.7422 10.36C47.6489 10.32 47.6022 10.26 47.6022 10.18C47.6022 10.1133 47.6155 10.0533 47.6422 10C47.6689 9.93333 47.6822 9.86 47.6822 9.78C47.6822 9.58 47.5889 9.48 47.4022 9.48C47.3355 9.48 47.2422 9.5 47.1222 9.54C47.0155 9.56667 46.8689 9.67333 46.6822 9.86C46.3089 10.2067 45.9022 10.6267 45.4622 11.12C45.0355 11.6 44.6289 12.14 44.2422 12.74C43.8689 13.34 43.5622 14 43.3222 14.72C43.2555 14.92 43.0555 15.0267 42.7222 15.04C42.2689 15.0667 42.0089 15.1 41.9422 15.14ZM53.1006 15.04C52.8073 15.04 52.5673 14.9533 52.3806 14.78C52.114 14.5533 51.9806 14.1733 51.9806 13.64C51.9806 13.2933 52.0406 12.9 52.1606 12.46C51.7073 13.22 51.234 13.84 50.7406 14.32C50.234 14.7867 49.7806 15.02 49.3806 15.02C49.034 15.02 48.7606 14.8667 48.5606 14.56C48.3473 14.2667 48.2406 13.86 48.2406 13.34C48.2406 12.0733 48.8073 10.7667 49.9406 9.42C50.1273 9.19333 50.3406 8.98667 50.5806 8.8C50.8206 8.61333 51.0806 8.44667 51.3606 8.3C51.934 8.00667 52.4873 7.86 53.0206 7.86C53.674 7.86 54.194 8.07333 54.5806 8.5C54.674 8.59333 54.7206 8.7 54.7206 8.82C54.7206 9.04667 54.6006 9.13333 54.3606 9.08C54.2273 8.6 53.914 8.36 53.4206 8.36C52.8606 8.36 52.2006 8.75333 51.4406 9.54C51.174 9.83333 50.9206 10.14 50.6806 10.46C50.4406 10.7667 50.214 11.0933 50.0006 11.44C49.4273 12.4 49.1406 13.18 49.1406 13.78C49.1406 14.2333 49.314 14.46 49.6606 14.46C50.0473 14.46 50.494 14.1667 51.0006 13.58C51.2806 13.26 51.5673 12.8667 51.8606 12.4C52.154 11.9333 52.4606 11.3933 52.7806 10.78C52.914 10.5267 53.034 10.32 53.1406 10.16C53.2473 10 53.334 9.88 53.4006 9.8C53.614 9.58667 53.8673 9.48667 54.1606 9.5L54.5606 9.56C54.734 9.6 54.8806 9.60667 55.0006 9.58C54.8806 9.7 54.734 9.89333 54.5606 10.16C54.4006 10.4133 54.214 10.7467 54.0006 11.16C53.774 11.6 53.5873 12 53.4406 12.36C53.294 12.72 53.194 13.04 53.1406 13.32C53.114 13.4533 53.094 13.58 53.0806 13.7C53.0673 13.8067 53.0606 13.9067 53.0606 14C53.0606 14.3467 53.154 14.52 53.3406 14.52C53.6073 14.52 53.974 14.2267 54.4406 13.64L54.5206 13.54L54.8006 13.72L54.7206 13.84C54.174 14.64 53.634 15.04 53.1006 15.04ZM55.0086 15.14C55.2753 14.4867 55.6086 13.68 56.0086 12.72C56.4086 11.76 56.8953 10.6533 57.4686 9.4C57.5886 9.13333 57.7019 8.91333 57.8086 8.74C57.9153 8.56667 58.0153 8.43333 58.1086 8.34C58.2953 8.15333 58.5353 8.06 58.8286 8.06C58.8553 8.06 58.9019 8.06 58.9686 8.06C59.0353 8.06 59.1286 8.07333 59.2486 8.1C59.4353 8.11333 59.5753 8.11333 59.6686 8.1C59.1753 8.39333 58.4353 9.68667 57.4486 11.98C57.5953 11.7933 57.7819 11.56 58.0086 11.28C58.2353 10.9867 58.5286 10.6667 58.8886 10.32C59.2619 9.96 59.5686 9.68 59.8086 9.48C60.0486 9.28 60.2153 9.14667 60.3086 9.08C60.8953 8.64 61.3286 8.42 61.6086 8.42C61.9953 8.42 62.1886 8.60667 62.1886 8.98C62.1886 9.1 62.1619 9.21333 62.1086 9.32C61.9486 9.62667 61.7419 10.0133 61.4886 10.48C61.2486 10.9467 60.9686 11.4933 60.6486 12.12C61.2886 11.32 61.8419 10.7133 62.3086 10.3C62.5486 10.0867 62.8153 9.88 63.1086 9.68C63.4153 9.48 63.7419 9.28 64.0886 9.08C64.8486 8.64 65.4219 8.42 65.8086 8.42C65.9019 8.42 65.9686 8.42667 66.0086 8.44C65.7953 8.81333 65.5953 9.17333 65.4086 9.52C65.2353 9.86667 65.0686 10.1933 64.9086 10.5C64.5353 11.2333 64.2419 11.86 64.0286 12.38C63.8153 12.9 63.6753 13.3067 63.6086 13.6C63.5953 13.6933 63.5819 13.78 63.5686 13.86C63.5686 13.94 63.5686 14.0133 63.5686 14.08C63.5686 14.4267 63.6953 14.6 63.9486 14.6C64.3619 14.6 64.8553 14.18 65.4286 13.34L65.7086 13.54C65.0286 14.5667 64.3486 15.08 63.6686 15.08C62.8286 15.08 62.4086 14.6467 62.4086 13.78C62.4086 13.06 62.8353 12.0133 63.6886 10.64C63.8219 10.4267 63.8886 10.2467 63.8886 10.1C63.8886 9.94 63.8219 9.86 63.6886 9.86C63.5419 9.86 63.3486 9.94 63.1086 10.1C62.8686 10.2467 62.5953 10.46 62.2886 10.74C62.0353 10.98 61.7686 11.2667 61.4886 11.6C61.2219 11.9333 60.9353 12.3133 60.6286 12.74C59.9619 13.7133 59.5686 14.4667 59.4486 15C59.2219 15 59.0486 14.8933 58.9286 14.68C58.8353 14.4933 58.7886 14.3067 58.7886 14.12C58.7886 13.8533 58.8819 13.5 59.0686 13.06C59.2553 12.62 59.5153 12.0867 59.8486 11.46C60.2353 10.7667 60.4286 10.2667 60.4286 9.96C60.4286 9.82667 60.3753 9.76 60.2686 9.76C60.0553 9.76 59.5819 10.0933 58.8486 10.76C58.6619 10.9333 58.4619 11.1533 58.2486 11.42C58.0486 11.6733 57.8353 11.9733 57.6086 12.32C57.0886 13.0933 56.6886 13.8667 56.4086 14.64C56.3286 14.84 56.1219 14.96 55.7886 15C55.3619 15.04 55.1019 15.0867 55.0086 15.14ZM65.8094 15.14C66.076 14.4867 66.4094 13.68 66.8094 12.72C67.2094 11.76 67.696 10.6533 68.2694 9.4C68.3894 9.13333 68.5027 8.91333 68.6094 8.74C68.716 8.56667 68.816 8.43333 68.9094 8.34C69.096 8.15333 69.336 8.06 69.6294 8.06C69.656 8.06 69.7027 8.06 69.7694 8.06C69.836 8.06 69.9294 8.07333 70.0494 8.1C70.236 8.11333 70.376 8.11333 70.4694 8.1C69.976 8.39333 69.236 9.68667 68.2494 11.98C68.396 11.7933 68.5827 11.56 68.8094 11.28C69.036 10.9867 69.3294 10.6667 69.6894 10.32C70.0627 9.96 70.3694 9.68 70.6094 9.48C70.8494 9.28 71.016 9.14667 71.1094 9.08C71.696 8.64 72.1294 8.42 72.4094 8.42C72.796 8.42 72.9894 8.60667 72.9894 8.98C72.9894 9.1 72.9627 9.21333 72.9094 9.32C72.7494 9.62667 72.5427 10.0133 72.2894 10.48C72.0494 10.9467 71.7694 11.4933 71.4494 12.12C72.0894 11.32 72.6427 10.7133 73.1094 10.3C73.3494 10.0867 73.616 9.88 73.9094 9.68C74.216 9.48 74.5427 9.28 74.8894 9.08C75.6494 8.64 76.2227 8.42 76.6094 8.42C76.7027 8.42 76.7694 8.42667 76.8094 8.44C76.596 8.81333 76.396 9.17333 76.2094 9.52C76.036 9.86667 75.8694 10.1933 75.7094 10.5C75.336 11.2333 75.0427 11.86 74.8294 12.38C74.616 12.9 74.476 13.3067 74.4094 13.6C74.396 13.6933 74.3827 13.78 74.3694 13.86C74.3694 13.94 74.3694 14.0133 74.3694 14.08C74.3694 14.4267 74.496 14.6 74.7494 14.6C75.1627 14.6 75.656 14.18 76.2294 13.34L76.5094 13.54C75.8294 14.5667 75.1494 15.08 74.4694 15.08C73.6294 15.08 73.2094 14.6467 73.2094 13.78C73.2094 13.06 73.636 12.0133 74.4894 10.64C74.6227 10.4267 74.6894 10.2467 74.6894 10.1C74.6894 9.94 74.6227 9.86 74.4894 9.86C74.3427 9.86 74.1494 9.94 73.9094 10.1C73.6694 10.2467 73.396 10.46 73.0894 10.74C72.836 10.98 72.5694 11.2667 72.2894 11.6C72.0227 11.9333 71.736 12.3133 71.4294 12.74C70.7627 13.7133 70.3694 14.4667 70.2494 15C70.0227 15 69.8494 14.8933 69.7294 14.68C69.636 14.4933 69.5894 14.3067 69.5894 14.12C69.5894 13.8533 69.6827 13.5 69.8694 13.06C70.056 12.62 70.316 12.0867 70.6494 11.46C71.036 10.7667 71.2294 10.2667 71.2294 9.96C71.2294 9.82667 71.176 9.76 71.0694 9.76C70.856 9.76 70.3827 10.0933 69.6494 10.76C69.4627 10.9333 69.2627 11.1533 69.0494 11.42C68.8494 11.6733 68.636 11.9733 68.4094 12.32C67.8894 13.0933 67.4894 13.8667 67.2094 14.64C67.1294 14.84 66.9227 14.96 66.5894 15C66.1627 15.04 65.9027 15.0867 65.8094 15.14ZM80.2302 7.26C79.7768 7.26 79.5502 7.04 79.5502 6.6C79.5502 6.16 79.7635 5.94 80.1902 5.94C80.6435 5.94 80.8702 6.16 80.8702 6.6C80.8702 7.04 80.6568 7.26 80.2302 7.26ZM77.5102 15C77.1235 15 76.9302 14.8067 76.9302 14.42C76.9302 14.18 77.0102 13.8533 77.1702 13.44C77.5168 12.5867 77.8435 11.8 78.1502 11.08C78.4568 10.36 78.7435 9.70667 79.0102 9.12C79.0502 9.05333 79.0702 8.98 79.0702 8.9C79.0702 8.71333 78.9835 8.51333 78.8102 8.3L79.9102 8.28C80.2835 8.28 80.4702 8.37333 80.4702 8.56C80.4702 8.61333 80.4568 8.67333 80.4302 8.74C80.4035 8.79333 80.3702 8.87333 80.3302 8.98L78.4902 13.24C78.3035 13.68 78.2102 14.0533 78.2102 14.36C78.2102 14.68 78.3102 14.8933 78.5102 15H77.5102Z" fill="black"/>
</svg>
